<svg width="42" height="42" viewBox="0 0 42 42" fill="none" xmlns="http://www.w3.org/2000/svg">
<g clip-path="url(#clip0_49_90)">
<path d="M40.6875 18.375H39.375H31.5H21V24.9375H30.1875C28.4813 28.4813 25.2 31.6313 21 31.6313C15.0938 31.6313 10.3688 26.9062 10.3688 21C10.3688 15.0938 15.0938 10.3688 21 10.3688C23.625 10.3688 25.725 11.4188 27.5625 13.125L36.3563 8.79375C32.8125 4.2 27.3 1.3125 21 1.3125C10.1062 1.3125 1.3125 10.1062 1.3125 21C1.3125 31.8938 10.1062 40.6875 21 40.6875C31.8938 40.6875 40.6875 31.8938 40.6875 21C40.6875 19.95 40.8188 19.425 40.6875 18.375Z" stroke="white" stroke-width="2" stroke-miterlimit="10" stroke-linecap="round" stroke-linejoin="round"/>
</g>
<defs>
<clipPath id="clip0_49_90">
<rect width="42" height="42" fill="white"/>
</clipPath>
</defs>
</svg>
